Brought to you by http://bitbitz.net

Come and join us at the home of BBnRG, where you will get exclusive releases just for bitbitz members.

So come and join us while you can.



Another Fine Release Brought to you from - http://bitbitz.net 
                                          

===================================================================================
                        The Company Men (2011) BRRip x264-BBnRG
===================================================================================                                                                               
 ___     _                    ___       __    
| _ \___| |___ __ _ ___ ___  |_ _|_ _  / _|___
|   / -_) / -_) _` (_-</ -_)  | || ' \|  _/ _ \
|_|_\___|_\___\__,_/__/\___| |___|_||_|_| \___/
===================================================================================
 
Format                           : MPEG-4
Format profile                   : Base Media / Version 2
Codec ID                         : mp42
File size                        : 696 MiB
Duration                         : 1h 44mn
Overall bit rate                 : 930 Kbps

Video
ID                               : 1
Format                           : AVC
Format/Info                      : Advanced Video Codec
Format profile                   : Main@L3.1
Format settings, CABAC           : Yes
Format settings, ReFrames        : 4 frames
Codec ID                         : avc1
Codec ID/Info                    : Advanced Video Coding
Duration                         : 1h 44mn
Bit rate mode                    : Variable
Bit rate                         : 765 Kbps
Width                            : 1 280 pixels
Height                           : 720 pixels
Display aspect ratio             : 16:9
Frame rate mode                  : Variable
Frame rate                       : 23.976 fps
Minimum frame rate               : 23.974 fps
Maximum frame rate               : 90 000.000 fps
Color space                      : YUV
Chroma subsampling               : 4:2:0
Bit depth                        : 8 bits
Scan type                        : Progressive
Bits/(Pixel*Frame)               : 0.035
Stream size                      : 572 MiB (82%)
Writing library                  : x264 core 112

Audio
ID                               : 2
Format                           : AAC
Format/Info                      : Advanced Audio Codec
Format profile                   : LC
Codec ID                         : 40
Duration                         : 1h 44mn
Bit rate mode                    : Variable
Bit rate                         : 160 Kbps
Maximum bit rate                 : 236 Kbps
Channel(s)                       : 2 channels
Channel positions                : Front: L R
Sampling rate                    : 48.0 KHz
Compression mode                 : Lossy
Stream size                      : 120 MiB (17%)
 

 ___     _                    ___                 _      _   _          
| _ \___| |___ __ _ ___ ___  |   \ ___ ___ __ _ _(_)_ __| |_(_)___ _ _  
|   / -_) / -_) _` (_-</ -_) | |) / -_|_-</ _| '_| | '_ \  _| / _ \ ' \
|_|_\___|_\___\__,_/__/\___| |___/\___/__/\__|_| |_| .__/\__|_\___/_||_|
                                                   |_|                  
===================================================================================
 
Encoder: RANDom

IMDB: http://www.imdb.com/title/tt1172991/

Plot:  The story centers on a year in the life of three men trying to survive a round of
corporate downsizing at a major company - and how that affects them, their families, and their
communities. 
 
 
 
  ___                     _  _     _          
 / __|_ _ ___ _  _ _ __  | \| |___| |_ ___ ___
| (_ | '_/ _ \ || | '_ \ | .` / _ \  _/ -_|_-<
 \___|_| \___/\_,_| .__/ |_|\_\___/\__\___/__/
                  |_|                        
===================================================================================
 
Source Used: BRRip 720p - NPW
 
Release Notes:
Here we are with another excellant release, i took the source from NPW (Thanks) - I had a
very little tinker, didn't need much doing. I then did some magic and converted the file to MKV.
The quality was preserved whilst converting the file and the quality is excellant considering the
file size. Enjoy.


If you have anything you can offer that could be of use please visit our home: http://BitBitz.net


RANDom: Presenting Another Great Quality Release.


For more great releases like this and exclusive releases please visit: http://BitBitz.net
 
 
 
 ___     _                     ___            _ _ _        
| _ \___| |___ __ _ ___ ___   / _ \ _  _ __ _| (_) |_ _  _
|   / -_) / -_) _` (_-</ -_) | (_) | || / _` | | |  _| || |
|_|_\___|_\___\__,_/__/\___|  \__\_\\_,_\__,_|_|_|\__|\_, |
                                                      |__/
===================================================================================
 
Screenshots:
 
http://leetleech.org/images/92288699939454590104.jpg 
http://leetleech.org/images/56253269628314363141.jpg 
http://leetleech.org/images/84832762281480419612.jpg 
http://leetleech.org/images/95570581355959761001.jpg 
http://leetleech.org/images/91871995191884158433.jpg 
http://leetleech.org/images/47587310508600790513.jpg




  ___             _      
 / __|_ _ ___ ___| |_ ___
| (_ | '_/ -_) -_)  _|_ /
 \___|_| \___\___|\__/__|
===================================================================================
 
NPW, HIVE-CM8, *THC*, SANTI, IMAGiNE, NiCkkkDoN, Hive-CM8, & to all other p2p team out there....